<?xml version="1.0" encoding="UTF-8"?>
<svg width="201px" height="200px" viewBox="0 0 201 200" version="1.1" xmlns="http://www.w3.org/2000/svg" xmlns:xlink="http://www.w3.org/1999/xlink">
    <!-- Generator: Sketch 52.5 (67469) - http://www.bohemiancoding.com/sketch -->
    <title>Translitedated</title>
    <desc>Created with Sketch.</desc>
    <g id="Page-1" stroke="none" stroke-width="1" fill="none" fill-rule="evenodd">
        <g id="Translitedated">
            <path d="M36.3790529,192.615204 L77.3922642,165.277609 L190.38155,165.277609 C193.581269,165.277609 196.358,162.216241 196.358,158.277745 L196.358,10.9974457 C196.358,7.06015847 193.582366,4 190.38155,4 L9.97645025,4 C6.77601503,4 4,7.05964958 4,10.9974457 L4,158.277745 C4,162.215733 6.77634957,165.277609 9.97645025,165.277609 L36.3790529,165.277609 L36.3790529,192.615204 Z" id="Path" stroke="#383838" stroke-width="8" fill-rule="nonzero"></path>
            <path d="M155.31941,29 L100,29 L100,35.0101523 C100,35.0101523 158.842296,37.6395939 158.842296,40.8324873 L158.842296,75.5786802 L132.200466,75.5786802 L132.200466,57.4543147 L128.677579,57.4543147 L128.677579,75.4847716 L101.815568,75.4847716 L101.815568,57.4543147 L98.2926817,57.4543147 L98.2926817,75.4847716 L71.5407611,75.4847716 L71.5407611,57.4543147 L68.0178744,57.4543147 L68.0178744,75.4847716 L41.1558635,75.4847716 L41.1558635,40.7385787 C41.1558635,37.5456853 100,35.0101523 100,35.0101523 L100,29 L44.6787502,29 C38.8439692,29 34,34.4467005 34,39.4238579 L34,129.482234 C34,134.459391 38.8439692,140 44.6787502,140 L155.31941,140 C161.264281,140 165.99816,134.459391 165.99816,129.482234 L165.99816,39.4238579 C166.10825,34.4467005 161.264281,29 155.31941,29 Z M128.567489,78.4898477 L128.567489,95.0177665 L101.815568,95.0177665 L101.815568,78.4898477 L128.567489,78.4898477 Z M101.815568,98.0228426 L128.567489,98.0228426 L128.567489,114.550761 L101.815568,114.550761 L101.815568,98.0228426 Z M98.2926817,114.550761 L71.5407611,114.550761 L71.5407611,98.0228426 L98.2926817,98.0228426 L98.2926817,114.550761 Z M98.2926817,78.4898477 L98.2926817,95.0177665 L71.5407611,95.0177665 L71.5407611,78.4898477 L98.2926817,78.4898477 Z M41.1558635,78.4898477 L67.9077842,78.4898477 L67.9077842,95.0177665 L41.1558635,95.0177665 L41.1558635,78.4898477 Z M41.1558635,98.0228426 L67.9077842,98.0228426 L67.9077842,114.550761 L41.1558635,114.550761 L41.1558635,98.0228426 Z M46.3301033,133.989848 C42.476946,133.989848 41.1558635,132.862944 41.1558635,129.670051 L41.1558635,117.461929 L67.9077842,117.461929 L67.9077842,133.989848 L46.3301033,133.989848 Z M71.5407611,133.989848 L71.5407611,117.461929 L98.2926817,117.461929 L98.2926817,133.989848 L71.5407611,133.989848 Z M101.815568,133.989848 L101.815568,117.461929 L128.567489,117.461929 L128.567489,133.989848 L101.815568,133.989848 Z M158.952387,129.763959 C158.952387,132.956853 157.631304,134.083756 153.778147,134.083756 L132.200466,134.083756 L132.200466,117.555838 L158.952387,117.555838 L158.952387,129.763959 Z M158.952387,114.550761 L132.200466,114.550761 L132.200466,98.0228426 L158.952387,98.0228426 L158.952387,114.550761 Z M158.952387,95.0177665 L132.200466,95.0177665 L132.200466,78.4898477 L158.952387,78.4898477 L158.952387,95.0177665 Z" id="Shape" fill="#383838" fill-rule="nonzero"></path>
            <rect id="select_2_" fill="#383838" x="70" y="78" width="29" height="18"></rect>
            <path d="M39.5,57.5 L160.5,57.5 L160.5,37.9341693 C160.5,34.9895916 158.163472,32.5 154.98,32.5 L45.91,32.5 C42.5931335,32.5 39.5,35.2606256 39.5,37.9341693 L39.5,57.5 Z" id="Path" stroke="#383838" stroke-width="3" fill="#860000" fill-rule="nonzero"></path>
            <path d="M100.5,48 C96.965054,48 94,45.8503464 94,43 L94,27 C94,24.1496536 96.965054,22 100.5,22 C104.034946,22 107,24.1496536 107,27 L107,43 C107,45.8503464 104.034946,48 100.5,48 Z" id="Path" stroke="#FFFFFF" stroke-width="2" fill="#383838" fill-rule="nonzero"></path>
            <path d="M60.5,48 C56.9575098,48 54,45.8605224 54,43.0147601 L54,26.9852399 C54,24.1394776 56.9575098,22 60.5,22 C64.0424902,22 67,24.1394776 67,26.9852399 L67,43.0147601 C67,45.8605224 64.0424902,48 60.5,48 Z" id="Path" stroke="#FFFFFF" stroke-width="2" fill="#383838" fill-rule="nonzero"></path>
            <path d="M139.5,48 C136.088684,48 133.143422,45.8646955 133,43 L133,27 C133,24.1496536 135.965054,22 139.5,22 C143.034946,22 146,24.1496536 146,27 L146,43 C146,45.8503464 143.034946,48 139.5,48 Z" id="Path" stroke="#FFFFFF" stroke-width="2" fill="#383838" fill-rule="nonzero"></path>
        </g>
    </g>
</svg>